<svg fill="white" height="44px" width="44px" xmlns="http://www.w3.org/2000/svg" xmlns:xlink="http://www.w3.org/1999/xlink" version="1.1" x="0px" y="0px" viewBox="0 0 100 125" style="enable-background:new 0 0 100 100;" xml:space="preserve"><g><path d="M56.53139,21.41821c-5.14103,0-7.27567-7.0054-7.27567-10.75577c0-0.92973,0.75381-1.68354,1.68354-1.68354   s1.68354,0.75381,1.68354,1.68354c0,2.6054,1.48305,7.38869,3.9086,7.38869c0.92973,0,1.68255,0.75381,1.68255,1.68354   S57.46112,21.41821,56.53139,21.41821z"/><path d="M64.62967,52.45604c-0.26733,0-0.53857-0.06487-0.79017-0.19852c-0.81966-0.43735-1.13022-1.45749-0.69386-2.27715   c1.22654-2.29681,1.79263-6.39705,1.68649-12.18476c-0.01769-0.92973,0.72137-1.6973,1.65111-1.714   c0.0118,0,0.02162-0.00098,0.03145-0.00098c0.91597,0,1.66486,0.73317,1.68256,1.65209   c0.1199,6.45897-0.5602,10.98378-2.07961,13.83194C65.81296,52.13171,65.23114,52.45604,64.62967,52.45604z"/><path d="M75.56628,65.56463c-0.36364,0-0.72924-0.05307-1.08501-0.16118c-1.13416-0.34398-3.66192-1.76118-3.52236-7.53808   c-3.93513-3.39656-6.10909-7.63833-6.46486-12.62211c-0.06683-0.92776,0.63096-1.73268,1.55872-1.79853   c0.92973-0.06879,1.73366,0.62997,1.79852,1.55872c0.31056,4.34398,2.23293,7.87321,5.87715,10.78624   c0.4285,0.34398,0.66437,0.87666,0.62702,1.42506c-0.24177,3.72678,0.71352,4.84914,1.10271,4.96708   c0.25945,0.09238,0.71548-0.14742,1.01621-0.66634c0.48943-0.84717,0.42064-2.30958-1.2403-3.86634   c-0.31843-0.30074-0.50909-0.71155-0.52875-1.14988c-0.15725-3.34938-1.12432-6.11597-2.9543-8.45602   c-0.34988-0.44717-0.45209-1.0398-0.26929-1.5774c0.99067-2.91695,0.51302-7.11155-1.41523-12.46879   c-0.08256-0.23292-0.11401-0.48157-0.09042-0.72924c0.25552-2.70172-0.20049-4.70663-1.35627-5.95675   c-1.24815-1.34939-3.49091-1.98034-6.58476-1.95774c-0.00983,0.00098-0.01965,0.00098-0.02752,0.00098   c-0.91794,0-1.6688-0.73612-1.68256-1.65602c-0.01572-0.92973,0.72531-1.69533,1.65504-1.71007   c4.09631-0.07666,7.18427,0.95528,9.11056,3.03784c1.771,1.9145,2.53366,4.66535,2.2683,8.17985   c1.95184,5.54201,2.4688,9.9656,1.56855,13.47321c1.79656,2.56413,2.83636,5.58624,3.09975,9.00442   c2.5887,2.77346,2.38427,5.74545,1.36216,7.51646C78.52843,64.68797,77.0562,65.56463,75.56628,65.56463z"/><path d="M56.8164,21.41821c-0.92973,0-1.68256-0.75381-1.68256-1.68354s0.75283-1.68354,1.68256-1.68354   c2.22899,0,3.90762-4.48255,3.90762-7.38869c0-0.92973,0.75282-1.68354,1.68255-1.68354s1.68256,0.75381,1.68256,1.68354   C64.08913,14.41281,61.95645,21.41821,56.8164,21.41821z"/><path d="M62.00756,25.35433c-0.64865,0-1.26781-0.37838-1.543-1.01327c-0.79803-1.83587-1.50761-3.71302-2.16806-5.73956   c-0.28894-0.88354,0.19459-1.83391,1.07911-2.12187c0.88256-0.29091,1.83194,0.19459,2.12088,1.07813   c0.62703,1.92432,1.29926,3.70516,2.05405,5.44275c0.3715,0.85209-0.01966,1.84373-0.87273,2.21425   C62.45964,25.30912,62.23163,25.35433,62.00756,25.35433z"/><path d="M56.72599,53.88699c-0.17101,0-0.34398-0.00196-0.51499-0.0059c-0.92973-0.01769-1.6688-0.78624-1.64914-1.71597   c0.01769-0.91793,0.76855-1.65012,1.68255-1.65012c0.00983,0,0.02162,0.00098,0.03342,0.00098   c2.74398,0.05307,5.33268-0.38919,7.75233-1.31499c0.8629-0.32924,1.83981,0.10221,2.17396,0.96904   c0.33218,0.86879-0.10221,1.84177-0.97101,2.17395C62.55989,53.36808,59.69994,53.88699,56.72599,53.88699z"/><path d="M56.24441,53.9951c-0.92973,0-1.68255-0.75283-1.68255-1.68256s0.75282-1.68354,1.68255-1.68354   c2.69091,0,5.31105-0.48059,7.78575-1.42801c0.8629-0.32924,1.83981,0.10221,2.17396,0.96904   c0.33218,0.86879-0.10221,1.84177-0.97101,2.17395C62.37316,53.4408,59.34809,53.9951,56.24441,53.9951z"/><path d="M72.60018,99.9941c-2.95037,0-6.71056-1.26781-11.34545-3.81326c-0.62506-0.34399-0.96708-1.04374-0.8511-1.74742   c0.49337-3.02309-2.06388-16.93365-2.90319-21.50368c-0.16904-0.91401,0.43636-1.79263,1.35037-1.95971   c0.91007-0.17886,1.79066,0.43636,1.95971,1.35037c1.54889,8.41867,3.07027,17.34643,3.00737,21.41522   c4.40688,2.30959,7.76413,3.24914,9.89877,2.77937c-1.96364-2.11696-4.38329-3.58919-7.34349-4.47765   c-0.76265-0.228-1.25995-0.95921-1.19312-1.75331c0.06093-0.7371,0.14152-1.54103,0.228-2.4118   c0.69189-6.99557,1.84963-18.70663-2.41376-36.71153c-0.21425-0.90516,0.34398-1.8113,1.25012-2.02555   c0.89632-0.21524,1.81032,0.34496,2.02457,1.24914c4.39508,18.55331,3.20196,30.61424,2.48845,37.82014   c-0.03539,0.36167-0.07076,0.71155-0.10418,1.04766c3.69534,1.36806,6.72826,3.65012,9.03391,6.79705   c0.51302,0.69975,0.40884,1.67666-0.23981,2.25258C76.17954,99.42801,74.56971,99.9941,72.60018,99.9941z"/><path d="M62.57758,73.11057c-0.16314,0-0.32825-0.02555-0.49337-0.07469c-0.88845-0.27322-1.38771-1.21474-1.11646-2.1032   c1.29533-4.22211,1.98133-11.19213,1.98133-20.16019c0-0.92973,0.75283-1.68354,1.68255-1.68354   c0.92973,0,1.68256,0.75381,1.68256,1.68354c0,9.42997-0.71548,16.54545-2.12678,21.14692   C63.96529,72.64473,63.29895,73.11057,62.57758,73.11057z"/><path d="M56.13237,74.64375c-2.47666,0-4.95233-0.57199-7.20884-1.71597c-0.82948-0.42064-1.16069-1.43292-0.74005-2.26241   c0.41867-0.83145,1.4339-1.15971,2.26142-0.74104c3.55872,1.80836,7.80835,1.80836,11.37199,0   c0.83145-0.42064,1.84373-0.08649,2.26241,0.74104c0.42064,0.82751,0.08845,1.84177-0.74103,2.26241   C61.08372,74.07175,58.60706,74.64375,56.13237,74.64375z"/><path d="M62.40461,12.34598c-0.25159,0-0.50909-0.057-0.75086-0.17789c-3.18821-1.59509-6.81474-1.6-9.95184-0.00491   c-0.83145,0.41966-1.84177,0.09042-2.26339-0.73808c-0.42064-0.82948-0.09042-1.84275,0.73808-2.26339   c4.09828-2.08059,8.82948-2.08157,12.9828-0.00491c0.83145,0.41671,1.16757,1.42703,0.75283,2.25848   C63.61738,12.00494,63.0218,12.34598,62.40461,12.34598z"/><path d="M50.93925,12.34598c-0.67224,0-1.30713-0.4059-1.56757-1.07027c-1.30221-3.32875-0.28305-7.02309,2.53857-9.19312   c2.85405-2.12481,6.66535-2.12776,9.50368-0.01671c2.83243,2.23587,3.84668,5.92629,2.55921,9.21081   c-0.33808,0.86486-1.31892,1.28845-2.17985,0.95332c-0.86683-0.33907-1.29337-1.31597-0.95332-2.18182   c0.74103-1.89484,0.14938-4.02948-1.4742-5.31105c-1.59607-1.18526-3.79558-1.18526-5.42506,0.02948   c-1.60098,1.23243-2.18575,3.36118-1.43391,5.28255c0.33907,0.86585-0.08845,1.84177-0.9543,2.18083   C51.35105,12.30863,51.14368,12.34598,50.93925,12.34598z"/><path d="M56.64539,28.83541c-2.9425,0-5.64816-1.75135-6.89336-4.46191c-0.3882-0.84423-0.01769-1.84373,0.82654-2.23194   c0.84816-0.38919,1.84373-0.01769,2.23194,0.82654c0.69779,1.51941,2.20344,2.50024,3.83488,2.50024   c1.67076,0,3.17052-0.96708,3.8172-2.46486c0.36953-0.85602,1.3602-1.24816,2.21327-0.87764   c0.85307,0.36855,1.24619,1.35921,0.87666,2.21228C62.37316,27.0703,59.66063,28.83541,56.64539,28.83541z"/><path d="M48.71518,52.45604c-0.60147,0-1.18329-0.32432-1.48599-0.8914c-1.49877-2.81179-2.19852-7.33071-2.13858-13.81621   c0.00885-0.92383,0.76069-1.66781,1.68354-1.66781c0.00491,0,0.00983,0,0.01572,0c0.92973,0.00885,1.67567,0.76953,1.66781,1.69926   c-0.05405,5.82604,0.53169,9.9312,1.74152,12.20049c0.43734,0.82064,0.12678,1.8398-0.69287,2.27715   C49.25375,52.39314,48.9825,52.45604,48.71518,52.45604z"/><path d="M40.27095,45.55186c-0.55037,0-1.08599-0.27125-1.40639-0.75774c-1.30123-1.97445-3.49681-3.41032-6.52776-4.26928   c-0.89435-0.25356-1.41425-1.18428-1.16069-2.07862c0.25455-0.89435,1.19115-1.40737,2.07862-1.16069   c1.76805,0.50123,3.32481,1.17739,4.66044,2.02162c0.08059-2.33022,0.77445-4.51695,2.05405-6.3715   c-0.20639-3.39066,0.56216-6.05209,2.28894-7.92039c1.91941-2.07568,4.96118-3.10663,9.05061-3.02703   c0.92973,0.01474,1.67076,0.78034,1.65504,1.71007c-0.01474,0.92973-0.7774,1.7317-1.71008,1.65504   c-3.07027-0.04619-5.28255,0.60344-6.52383,1.94791c-1.15774,1.25209-1.61474,3.25995-1.35823,5.96658   c0.04029,0.4285-0.08452,0.857-0.34988,1.19607c-2.5828,3.30418-1.66683,7.31105-1.15282,8.88058   c0.26339,0.80098-0.10811,1.67371-0.86781,2.03931C40.76628,45.49781,40.51764,45.55186,40.27095,45.55186z"/><path d="M51.28028,25.35433c-0.24373,0-0.4914-0.05307-0.7253-0.16511c-0.83931-0.40196-1.19312-1.40639-0.79214-2.24472   c0.68895-1.43882,1.39066-3.2511,2.08649-5.38575c0.28796-0.88452,1.23145-1.36904,2.12088-1.07911   c0.88452,0.28796,1.36806,1.23734,1.07912,2.12088c-0.74103,2.27518-1.49779,4.22506-2.24963,5.79656   C52.51075,25.0015,51.90829,25.35433,51.28028,25.35433z"/><path d="M56.61984,53.88699c-2.97494,0-5.8339-0.51892-8.50811-1.543c-0.86781-0.33219-1.30221-1.30516-0.96904-2.17395   c0.33219-0.86781,1.30319-1.30025,2.17395-0.96904c2.41769,0.9258,4.99165,1.37101,7.75135,1.31499   c0.01179,0,0.02359-0.00098,0.03341-0.00098c0.91401,0,1.66486,0.73219,1.68256,1.65012   c0.01966,0.92973-0.71941,1.69828-1.64914,1.71597C56.96382,53.88503,56.79085,53.88699,56.61984,53.88699z"/><path d="M57.10141,53.9951c-3.10467,0-6.12874-0.5543-8.98968-1.6511c-0.86781-0.33219-1.30221-1.30516-0.96904-2.17395   c0.33219-0.86781,1.30319-1.30025,2.17395-0.96904c2.47469,0.94742,5.09386,1.42801,7.78476,1.42801   c0.92973,0,1.68256,0.75381,1.68256,1.68354S58.03114,53.9951,57.10141,53.9951z"/><path d="M40.74663,100c-1.9656,0-3.57444-0.56806-4.84717-1.69828c-0.64865-0.57592-0.75283-1.55283-0.2398-2.25258   c2.30467-3.14693,5.33857-5.42899,9.03194-6.79705c-0.03243-0.33808-0.06683-0.68993-0.10319-1.05356   c-0.71253-7.20393-1.90467-19.26486,2.48747-37.81424c0.21523-0.90319,1.12236-1.46339,2.02654-1.24914   c0.90417,0.21326,1.46339,1.12039,1.24914,2.02555c-4.26241,18.00294-3.10467,29.71203-2.41278,36.7076   c0.08551,0.87273,0.16511,1.67666,0.22801,2.41573c0.06585,0.7941-0.43145,1.52531-1.1941,1.75331   c-2.96118,0.88846-5.37985,2.36069-7.34349,4.47961c2.12383,0.46585,5.46437-0.46781,9.84078-2.77739   c-0.05995-4.02162,1.4683-12.73513,3.06536-21.41916c0.16708-0.91401,1.02899-1.5312,1.9597-1.35037   c0.91401,0.16708,1.51941,1.0457,1.35037,1.95971c-1.11253,6.05209-3.42702,18.64569-2.96019,21.50368   c0.11499,0.70172-0.22408,1.39951-0.84521,1.74348C47.43262,98.72826,43.69012,100,40.74663,100z"/><path d="M50.76825,73.11057c-0.71253,0-1.37395-0.45602-1.60295-1.17149c-1.43587-4.4855-2.13464-11.40835-2.13464-21.16658   c0-0.92973,0.75381-1.68354,1.68354-1.68354s1.68354,0.75381,1.68354,1.68354c0,9.27272,0.66339,16.05012,1.97346,20.14053   c0.28304,0.88452-0.20443,1.83194-1.08993,2.11695C51.11124,73.08305,50.93827,73.11057,50.76825,73.11057z"/><path d="M46.77218,39.44769c-0.8855,0-1.6285-0.69287-1.67862-1.58919c-0.21916-3.89779-0.42654-7.57936-2.74103-11.02407   c-0.51793-0.7715-0.31253-1.8172,0.45897-2.33612c0.77248-0.51695,1.8172-0.31351,2.33612,0.45897   c2.8285,4.2113,3.07224,8.53267,3.30713,12.71252c0.05209,0.92776-0.65749,1.72285-1.58624,1.77494   C46.83704,39.4467,46.80461,39.44769,46.77218,39.44769z"/><path d="M66.51665,39.44769c-0.03931,0-0.08059-0.00197-0.1199-0.00492c-0.92776-0.06487-1.62556-0.86978-1.56069-1.79656   l0.01769-0.26732c0.28698-4.0855,0.58379-8.30958,3.34545-12.42162c0.52089-0.77248,1.56265-0.97592,2.3371-0.45799   c0.77052,0.51794,0.97494,1.56364,0.45798,2.33513c-2.26241,3.36609-2.51401,6.96708-2.78133,10.77936l-0.01965,0.2683   C68.1304,38.76955,67.39133,39.44769,66.51665,39.44769z"/><path d="M62.80559,11.20495c-0.84717,0-1.57641-0.63784-1.67076-1.49975c-0.10221-0.92383,0.56413-1.75528,1.48796-1.85651   c2.98772-0.32924,4.03735-0.83833,4.36953-1.06634c-0.08059-0.13661-0.2457-0.36167-0.56805-0.67813   c-0.42457-0.41474-0.59951-1.02211-0.45995-1.59803c0.12187-0.51007,0.47371-0.92973,0.94546-1.14103   c-2.9602,0.06585-3.79951,1.34054-4.12383,1.83292c-0.51106,0.77543-1.55086,0.99361-2.3312,0.47961   c-0.77641-0.51106-0.99067-1.55479-0.47961-2.3312c1.92825-2.92678,5.49582-3.943,10.60638-3.01228   c0.8511,0.1543,1.44669,0.92875,1.37789,1.78968c-0.07273,0.89238-0.4285,2.30467-1.83981,3.37887   c0.3656,0.79705,0.41671,1.58133,0.15332,2.34398c-0.63096,1.82997-2.87568,2.8629-7.28059,3.34742   C62.92942,11.20101,62.86652,11.20495,62.80559,11.20495z"/><path d="M50.5422,11.20495c-0.06192,0-0.12383-0.00393-0.18575-0.01081c-4.40393-0.48452-6.65356-1.51548-7.29631-3.34447   c-0.26732-0.7597-0.22211-1.54103,0.13268-2.33808c-1.27961-0.9769-1.72875-2.26732-1.85553-3.3199   c-0.10712-0.88354,0.49337-1.69828,1.37003-1.85749c5.08108-0.9258,8.66339,0.08059,10.64864,2.9887   c0.52481,0.76757,0.32727,1.81523-0.4403,2.33907c-0.76855,0.5258-1.81523,0.32727-2.33907-0.44029   c-0.33907-0.49631-1.21867-1.7828-4.19164-1.85454c0.46585,0.2113,0.81474,0.62604,0.93956,1.12924   c0.14054,0.57297-0.02752,1.17739-0.44423,1.5941c-0.31843,0.31843-0.47666,0.54251-0.55332,0.67715   c0.32138,0.22604,1.36216,0.74693,4.39705,1.08108c0.92482,0.10123,1.59115,0.93268,1.48894,1.85651   C52.11861,10.56711,51.38938,11.20495,50.5422,11.20495z"/><path d="M43.23705,51.48601c-0.05307,0-0.10712-0.00295-0.16118-0.00786c-6.0226-0.57985-10.3253-2.57297-12.80688-5.92924   c-4.17101-0.38329-5.89975-2.06585-6.61425-3.45651c-0.77838-1.51646-0.64079-3.34938,0.36953-4.90319   c1.05258-1.67862,2.38132-2.60934,3.93513-2.743c1.93612-0.1661,3.91941,0.92383,6.08747,3.33268   c0.62211,0.69189,0.56609,1.75528-0.12482,2.3774c-0.69287,0.62309-1.75725,0.56413-2.3774-0.12482   c-1.89582-2.10712-2.93563-2.26437-3.29533-2.23194c-0.5543,0.04816-1.06044,0.6801-1.38771,1.20098   c-0.22015,0.33907-0.51892,0.95725-0.21229,1.55381c0.1828,0.35577,1.05455,1.52629,4.62506,1.68943   c0.55233,0.02555,1.05553,0.31941,1.34939,0.78722c1.70909,2.72629,4.91499,4.36167,9.78181,4.98476   c1.55381-2.46978,2.457-5.2285,2.69091-8.21425c0.07273-0.92776,0.90614-1.62457,1.80835-1.54693   c0.92678,0.07175,1.61966,0.88157,1.54693,1.80835c-0.30663,3.9312-1.59803,7.53513-3.8398,10.71056   C44.29454,51.22262,43.78053,51.48601,43.23705,51.48601z"/><path d="M24.12551,56.90419c-0.1032,0-0.20639-0.00787-0.31155-0.02752c-0.91401-0.17101-1.51548-1.0516-1.34447-1.96364   l1.48305-7.9312c0.17101-0.91401,1.05061-1.5145,1.96364-1.34447c0.914,0.17002,1.51548,1.04963,1.34447,1.96363l-1.48305,7.92923   C25.62624,56.34007,24.91961,56.90419,24.12551,56.90419z"/><path d="M30.92354,21.33074c-0.19754,0-0.39705-0.01769-0.59656-0.05405c-0.92285-0.17592-1.73366-0.73415-2.29779-1.57346   c-0.73317-1.08894-0.99066-2.52875-0.70663-3.94988c0.22506-1.40246,0.98083-2.67617,2.0629-3.43292   c0.82457-0.57789,1.78083-0.80491,2.68796-0.63096c2.16609,0.39607,3.51253,2.79705,3.06634,5.46929   C34.64639,19.63148,32.86359,21.33074,30.92354,21.33074z M31.46801,15.00052c-0.18182,0.0285-0.69189,0.47076-0.83341,1.35037   c-0.19066,0.95725,0.1828,1.55479,0.32629,1.62162c0.11499-0.01376,0.6742-0.44914,0.8688-1.42015   C31.983,15.62558,31.58889,15.03885,31.46801,15.00052L31.46801,15.00052z"/><path d="M31.23705,26.99069c-1.94889,0-3.86143-0.52481-5.53317-1.5371c-0.7941-0.48157-1.04865-1.51744-0.56708-2.31253   c0.48256-0.7941,1.5145-1.04963,2.31253-0.56708c1.50762,0.91499,3.3887,1.25111,5.15577,0.9258   c0.91204-0.17396,1.79165,0.43636,1.9597,1.35037c0.16806,0.91401-0.43636,1.79165-1.35037,1.95971   C32.55597,26.93172,31.89454,26.99069,31.23705,26.99069z"/><path d="M21.61347,24.04229c-0.11204,0-0.22506-0.0118-0.3371-0.0344c-0.76364-0.15528-1.32088-0.81474-1.34644-1.5941   c-0.22408-6.82653,0.88452-10.62604,3.49091-11.95872c2.06388-1.05553,4.6113-0.38034,7.77985,2.07076   c0.73514,0.56904,0.86978,1.62654,0.30172,2.36167c-0.57002,0.73415-1.62752,0.86781-2.36167,0.30172   c-1.88993-1.46241-3.45946-2.11106-4.18771-1.73661c-0.3086,0.15725-1.08599,0.82555-1.46732,3.58231   c0.90811-0.72432,1.87519-1.17838,2.86093-1.32481c1.56069-0.23489,3.0172,0.31253,4.10909,1.53219   c0.61917,0.69287,0.5602,1.75725-0.13268,2.37739c-0.69582,0.61917-1.75823,0.55823-2.3774-0.13268   c-0.43145-0.48256-0.83538-0.48452-1.10565-0.44718c-0.9484,0.14054-2.41965,1.27273-3.70123,4.0285   C22.85868,23.67079,22.2572,24.04229,21.61347,24.04229z"/><path d="M38.10289,27.06636c-0.08943,0-0.17985-0.00786-0.27027-0.02162c-0.76855-0.12481-1.35233-0.76069-1.40934-1.53808   c-0.22604-3.0683-1.23342-4.66339-2.02654-5.09582c-0.25356-0.13956-0.61523-0.25553-1.19804,0.06093   c-0.81867,0.44128-1.83882,0.13956-2.28206-0.67518c-0.44324-0.81769-0.14152-1.83882,0.67518-2.28305   c1.46536-0.79214,3.03292-0.81278,4.41867-0.05799c0.88059,0.48157,1.63243,1.25504,2.23096,2.2683   c0.62015-2.71155,0.13071-3.60786-0.10221-3.86241c-0.54546-0.59951-2.22899-0.53563-4.49926,0.17395   c-0.88256,0.27813-1.83096-0.21622-2.10909-1.10467c-0.27715-0.88747,0.2172-1.83096,1.10467-2.10909   c3.81622-1.19017,6.4285-0.93956,7.99115,0.7715c1.97248,2.16216,1.66388,6.114-0.97101,12.43734   C39.39135,26.6644,38.77317,27.06636,38.10289,27.06636z"/><path d="M31.77071,15.02804c-0.10712,0-0.21523-0.00983-0.32432-0.03145c-0.91204-0.17789-1.50762-1.06143-1.32973-1.97445   l0.45602-2.34005c0.17789-0.91204,1.06241-1.51056,1.97445-1.32973c0.91204,0.17789,1.50762,1.06142,1.32973,1.97445   l-0.45602,2.34005C33.26457,14.46981,32.5599,15.02804,31.77071,15.02804z"/><path d="M28.46162,33.17152c-0.10024,0-0.20246-0.00885-0.30467-0.02752c-0.91401-0.16708-1.52039-1.04374-1.35332-1.95872   l2.16806-11.86732c0.16708-0.91302,1.04472-1.51744,1.95872-1.35332c0.91401,0.16708,1.52039,1.04374,1.35332,1.95872   l-2.16806,11.86732C29.96727,32.60248,29.25867,33.17152,28.46162,33.17152z"/></g></svg>